<?xml version="1.0" encoding="iso-8859-1"?>
<!-- Generator: Adobe Illustrator 19.0.0, SVG Export Plug-In . SVG Version: 6.00 Build 0)  -->
<svg version="1.1" id="Capa_1" xmlns="http://www.w3.org/2000/svg" xmlns:xlink="http://www.w3.org/1999/xlink" x="0px" y="0px"
	 viewBox="0 0 470 470" style="enable-background:new 0 0 470 470;" xml:space="preserve">
<g>
	<path d="M401.17,68.83C356.784,24.444,297.771,0,235,0S113.216,24.444,68.83,68.83C24.444,113.215,0,172.229,0,235
		s24.444,121.785,68.83,166.17C113.216,445.556,172.229,470,235,470s121.784-24.444,166.17-68.83
		C445.556,356.785,470,297.771,470,235S445.556,113.215,401.17,68.83z M235,455c-121.309,0-220-98.691-220-220S113.691,15,235,15
		s220,98.691,220,220S356.309,455,235,455z"/>
	<path d="M425.22,311.407C434.744,287.781,440,261.994,440,235c0-0.939-0.002-1.878-0.016-2.814
		c-0.03-2.142-0.975-4.168-2.595-5.569c-11.436-9.885-25.175-17.239-39.73-21.268c-0.319-0.085-0.612-0.146-0.91-0.19
		c-0.055-0.008-0.11-0.011-0.166-0.018c-0.233-0.029-0.468-0.047-0.705-0.054c-0.089-0.003-0.177-0.003-0.266-0.003
		c-0.207,0.001-0.415,0.013-0.624,0.032c-0.09,0.008-0.18,0.013-0.27,0.024c-0.256,0.033-0.513,0.078-0.77,0.139
		c-0.057,0.013-0.113,0.028-0.169,0.042c-0.253,0.066-0.5,0.143-0.74,0.233c-0.083,0.031-0.164,0.068-0.245,0.102
		c-0.197,0.081-0.388,0.168-0.575,0.265c-0.077,0.04-0.152,0.08-0.228,0.122c-0.209,0.117-0.411,0.244-0.606,0.379
		c-0.044,0.031-0.09,0.058-0.133,0.09c-0.243,0.177-0.475,0.367-0.694,0.57c-16.284,15.24-27.043,35.15-30.887,56.813
		c-20.515-5.123-42.366-5.012-63.435,0.915c-0.318,0.093-0.602,0.193-0.88,0.31c-0.046,0.019-0.09,0.042-0.135,0.063
		c-0.222,0.099-0.44,0.209-0.653,0.33c-0.07,0.04-0.139,0.081-0.208,0.123c-0.188,0.115-0.37,0.239-0.549,0.372
		c-0.063,0.047-0.128,0.09-0.189,0.139c-0.226,0.179-0.447,0.369-0.656,0.577c-0.214,0.214-0.404,0.435-0.583,0.662
		c-0.047,0.06-0.09,0.123-0.136,0.185c-0.134,0.181-0.26,0.366-0.376,0.556c-0.041,0.067-0.08,0.134-0.119,0.202
		c-0.123,0.217-0.235,0.438-0.335,0.664c-0.019,0.042-0.04,0.082-0.058,0.125c-0.118,0.281-0.219,0.566-0.302,0.857
		c-12.093,42.989-0.051,89.226,31.417,120.696c2.822,2.821,5.783,5.505,8.857,8.038c-18.521,10.94-39.046,18.826-60.884,22.964
		l-15.101-245.408l80.513,67.847c1.372,1.156,3.09,1.765,4.834,1.765c0.805,0,1.615-0.129,2.4-0.395
		c2.484-0.84,4.351-2.917,4.92-5.478c6.152-27.667-1.702-56.085-20.586-76.515l44.891,3.234c0.181,0.013,0.36,0.02,0.54,0.02
		c2.42,0,4.706-1.171,6.118-3.163c1.517-2.14,1.805-4.917,0.761-7.323c-11.285-25.999-34.343-44.373-61.629-49.801l38.219-23.771
		c2.228-1.385,3.569-3.834,3.538-6.457c-0.03-2.623-1.43-5.04-3.688-6.372c-27.527-16.238-61.47-15.848-88.58,1.015
		c-14.558,9.054-25.704,22.723-32.509,39.137c-6.731-16.392-17.865-29.922-32.682-39.137c-27.111-16.862-61.053-17.252-88.58-1.015
		c-2.259,1.333-3.658,3.749-3.688,6.372c-0.031,2.623,1.311,5.071,3.538,6.457l38.219,23.771
		c-27.286,5.427-50.344,23.802-61.629,49.801c-1.044,2.406-0.756,5.183,0.761,7.323c1.412,1.993,3.698,3.163,6.118,3.163
		c0.179,0,0.359-0.006,0.54-0.02l44.891-3.234c-18.885,20.43-26.738,48.848-20.586,76.515c0.569,2.561,2.436,4.638,4.92,5.478
		c0.785,0.265,1.596,0.395,2.4,0.395c1.744,0,3.462-0.608,4.834-1.765l80.513-67.847L199.554,421.67
		c-21.838-4.138-42.364-12.024-60.884-22.964c3.074-2.533,6.036-5.218,8.858-8.039c31.468-31.469,43.51-77.707,31.426-120.669
		c-0.092-0.317-0.193-0.602-0.311-0.883c-0.018-0.042-0.039-0.083-0.058-0.125c-0.1-0.226-0.212-0.447-0.335-0.663
		c-0.039-0.068-0.079-0.136-0.12-0.203c-0.116-0.19-0.242-0.374-0.376-0.555c-0.046-0.062-0.088-0.125-0.136-0.185
		c-0.179-0.227-0.369-0.448-0.578-0.657c-0.214-0.214-0.435-0.404-0.661-0.583c-0.061-0.048-0.125-0.091-0.187-0.137
		c-0.18-0.134-0.363-0.259-0.552-0.374c-0.068-0.041-0.136-0.082-0.205-0.121c-0.215-0.123-0.435-0.234-0.659-0.333
		c-0.043-0.019-0.085-0.041-0.129-0.06c-0.28-0.118-0.564-0.219-0.853-0.301c-21.096-5.936-42.948-6.047-63.464-0.924
		c-3.843-21.663-14.603-41.574-30.863-56.794c-0.243-0.224-0.476-0.414-0.72-0.591c-0.042-0.031-0.086-0.057-0.129-0.087
		c-0.196-0.137-0.4-0.264-0.611-0.382c-0.074-0.042-0.149-0.082-0.225-0.121c-0.188-0.097-0.382-0.185-0.58-0.267
		c-0.08-0.033-0.159-0.069-0.241-0.1c-0.244-0.091-0.494-0.17-0.751-0.236c-0.05-0.013-0.1-0.026-0.151-0.038
		c-0.263-0.062-0.525-0.109-0.787-0.142c-0.078-0.01-0.157-0.014-0.236-0.021c-0.225-0.021-0.449-0.033-0.672-0.034
		c-0.074,0-0.147,0-0.221,0.002c-0.262,0.007-0.522,0.026-0.779,0.06c-0.032,0.004-0.064,0.006-0.096,0.011
		c-0.31,0.045-0.616,0.108-0.915,0.191c-14.568,4.031-28.307,11.386-39.743,21.271c-1.62,1.401-2.564,3.427-2.595,5.569
		C30.002,233.122,30,234.061,30,235c0,26.994,5.256,52.781,14.78,76.406c0.019,0.049,0.04,0.098,0.06,0.146
		c15.519,38.411,42.346,71.082,76.34,93.861c0.047,0.032,0.094,0.062,0.142,0.093c24.707,16.526,53.188,27.826,83.853,32.316
		c0.158,0.029,0.319,0.049,0.48,0.067C215.242,439.271,225.037,440,235,440s19.758-0.729,29.346-2.109
		c0.161-0.019,0.322-0.039,0.48-0.067c30.666-4.49,59.147-15.79,83.855-32.317c0.046-0.031,0.093-0.06,0.139-0.091
		c33.995-22.78,60.822-55.451,76.341-93.862C425.18,311.504,425.202,311.456,425.22,311.407z M391.719,227.964l8.303,33.758
		c0.842,3.42,3.905,5.71,7.277,5.71c0.593,0,1.195-0.071,1.797-0.219c4.022-0.989,6.481-5.052,5.492-9.074l-8.297-33.732
		c6.674,3.017,12.992,6.851,18.706,11.414c-0.088,20.571-3.474,40.375-9.635,58.925c-12.017-11.605-26.079-20.448-41.234-26.28
		C376.413,253.646,382.481,239.726,391.719,227.964z M335.026,223.792l-83.206-70.116c-0.091-0.082-0.186-0.159-0.281-0.236
		l-1.201-1.012c4.69-0.969,9.481-1.457,14.337-1.457c16.555,0,32.654,5.884,45.334,16.569
		C326.766,181.659,335.776,202.399,335.026,223.792z M359.703,150.772l-53.237-3.835c-12.696-7.13-27.092-10.967-41.791-10.967
		c-2.964,0-5.907,0.16-8.827,0.459c13.828-11.717,31.847-17.805,50.551-16.461C328.255,121.543,347.735,133.025,359.703,150.772z
		 M275.518,83.604c18.605-11.572,41.114-13.734,61.229-6.41l-45.279,28.163c-17.028,1.958-32.958,8.969-45.825,20.049
		C250.536,107.527,260.956,92.661,275.518,83.604z M194.482,83.604c14.852,9.237,25.213,23.937,30.004,41.915
		c-12.89-11.146-28.868-18.199-45.955-20.164l-45.279-28.162C153.369,69.871,175.876,72.032,194.482,83.604z M163.601,119.968
		c18.701-1.348,36.723,4.743,50.552,16.462c-2.92-0.299-5.863-0.46-8.828-0.46c-14.699,0-29.094,3.838-41.791,10.967l-53.237,3.835
		C122.265,133.025,141.745,121.543,163.601,119.968z M159.99,167.54c12.68-10.685,28.779-16.569,45.334-16.569
		c4.855,0,9.646,0.488,14.337,1.457l-84.688,71.364C134.224,202.399,143.234,181.659,159.99,167.54z M63.708,224.406l-8.297,33.732
		c-0.989,4.022,1.47,8.085,5.492,9.074c0.602,0.148,1.204,0.219,1.797,0.219c3.372,0,6.436-2.29,7.277-5.71l8.303-33.758
		c9.238,11.763,15.306,25.683,17.59,40.502c-15.156,5.832-29.217,14.675-41.234,26.28c-6.161-18.55-9.547-38.355-9.635-58.926
		C50.717,231.257,57.034,227.423,63.708,224.406z M60.514,310.167c1.041-1.132,2.106-2.243,3.188-3.325
		c24.486-24.487,59.163-35.566,93.002-30.391l-57.783,57.783c-2.929,2.929-2.929,7.678,0,10.606
		c1.465,1.465,3.384,2.197,5.304,2.197c1.919,0,3.839-0.732,5.304-2.197l57.782-57.782c5.174,33.841-5.904,68.515-30.39,93.002
		c-3.616,3.616-7.488,6.979-11.552,10.039C97.049,370.021,74.448,342.388,60.514,310.167z M214.446,423.884l1.607-26.118H231
		c4.143,0,7.5-3.358,7.5-7.5s-3.357-7.5-7.5-7.5h-14.024l13.529-219.861l4.495-3.788l4.495,3.788l9.824,159.652h-5.98
		c-4.143,0-7.5,3.358-7.5,7.5s3.357,7.5,7.5,7.5h6.903l5.312,86.328C248.8,424.614,241.945,425,235,425
		S221.2,424.614,214.446,423.884z M344.632,390.099c-4.065-3.06-7.936-6.423-11.552-10.038
		c-24.487-24.487-35.565-59.161-30.391-93.002l57.783,57.783c1.465,1.464,3.385,2.197,5.304,2.197s3.839-0.732,5.304-2.197
		c2.929-2.929,2.929-7.678,0-10.606l-57.784-57.784c33.839-5.173,68.515,5.903,93.004,30.391c1.082,1.081,2.146,2.192,3.187,3.324
		C395.552,342.388,372.952,370.021,344.632,390.099z"/>
</g>
<g>
</g>
<g>
</g>
<g>
</g>
<g>
</g>
<g>
</g>
<g>
</g>
<g>
</g>
<g>
</g>
<g>
</g>
<g>
</g>
<g>
</g>
<g>
</g>
<g>
</g>
<g>
</g>
<g>
</g>
</svg>
